<?xml version="1.0" encoding="UTF-8" standalone="no"?>
<!DOCTYPE svg PUBLIC "-//W3C//DTD SVG 1.1//EN" "http://www.w3.org/Graphics/SVG/1.1/DTD/svg11.dtd">
<svg width="100%" height="100%" viewBox="0 0 170 170" version="1.1" xmlns="http://www.w3.org/2000/svg" xmlns:xlink="http://www.w3.org/1999/xlink" xml:space="preserve" xmlns:serif="http://www.serif.com/" style="fill-rule:evenodd;clip-rule:evenodd;">
    <g transform="matrix(1.36151,0,0,1.36151,136.057,135.947)">
        <g>
            <g>
                <g transform="matrix(1,0,0,1,-37.5,-37.5)">
                    <path d="M-30,-30L30,-30L45,-15L-15,-15L-30,-30Z" style="fill:rgb(255,167,38);fill-opacity:0.9;fill-rule:nonzero;"/>
                </g>
                <g transform="matrix(1,0,0,1,-37.5,-37.5)">
                    <path d="M30,-30L30,30L45,45L45,-15L30,-30Z" style="fill:rgb(255,167,38);fill-opacity:0.8;fill-rule:nonzero;"/>
                </g>
                <g transform="matrix(1,0,0,1,-37.5,-37.5)">
                    <path d="M-30,-30L-30,30L-15,45L-15,-15L-30,-30Z" style="fill:rgb(255,167,38);fill-opacity:0.7;fill-rule:nonzero;"/>
                </g>
                <g transform="matrix(1,0,0,1,-22.5,-52.5)">
                    <path d="M-15,-15L15,-15L22.5,-7.5L-7.5,-7.5L-15,-15Z" style="fill:rgb(66,165,245);fill-opacity:0.9;fill-rule:nonzero;"/>
                </g>
                <g transform="matrix(1,0,0,1,-22.5,-52.5)">
                    <path d="M15,-15L15,15L22.5,22.5L22.5,-7.5L15,-15Z" style="fill:rgb(30,136,229);fill-opacity:0.8;fill-rule:nonzero;"/>
                </g>
                <g transform="matrix(1,0,0,1,-22.5,-52.5)">
                    <path d="M-15,-15L-15,15L-7.5,22.5L-7.5,-7.5L-15,-15Z" style="fill:rgb(25,118,210);fill-opacity:0.7;fill-rule:nonzero;"/>
                </g>
                <g transform="matrix(1,0,0,1,-37.5,-37.5)">
                    <path d="M-60,0L60,0" style="fill:none;fill-rule:nonzero;stroke:rgb(255,167,38);stroke-width:0.8px;"/>
                </g>
                <g transform="matrix(1,0,0,1,-37.5,-37.5)">
                    <path d="M0,-60L0,60" style="fill:none;fill-rule:nonzero;stroke:rgb(255,167,38);stroke-width:0.8px;"/>
                </g>
                <g transform="matrix(1,0,0,1,-37.5,-37.5)">
                    <path d="M-42,-42L42,42" style="fill:none;fill-rule:nonzero;stroke:rgb(255,167,38);stroke-width:0.8px;"/>
                </g>
                <g transform="matrix(1,0,0,1,-37.5,-37.5)">
                    <path d="M-42,42L42,-42" style="fill:none;fill-rule:nonzero;stroke:rgb(255,167,38);stroke-width:0.8px;"/>
                </g>
                <g transform="matrix(1,0,0,1,-37.5,-37.5)">
                    <circle cx="0" cy="0" r="50" style="fill:none;stroke:rgb(255,167,38);stroke-opacity:0.4;stroke-width:0.6px;"/>
                </g>
            </g>
        </g>
    </g>
</svg>
